HIERARCHY
ROOT Hips
{
	OFFSET -8.665500 -1.496397 44.816700
	CHANNELS 6 Xposition Yposition Zposition Zrotation Xrotation Yrotation
	JOINT Chest
	{
		OFFSET -0.698600 0.806100 5.350899
		CHANNELS 6 Xposition Yposition Zposition Zrotation Xrotation Yrotation
		JOINT Chest2
		{
			OFFSET 0.000000 0.000000 4.409100
			CHANNELS 6 Xposition Yposition Zposition Zrotation Xrotation Yrotation
			JOINT Neck
			{
				OFFSET 0.000000 0.000001 10.248299
				CHANNELS 6 Xposition Yposition Zposition Zrotation Xrotation Yrotation
				JOINT Head
				{
					OFFSET 0.000000 0.000000 2.173897
					CHANNELS 6 Xposition Yposition Zposition Zrotation Xrotation Yrotation
					End Site
					{
						OFFSET 0.000000 0.000001 9.966400
					}
				}
			}
			JOINT LeftCollar
			{
				OFFSET 2.100600 -0.520900 6.016098
				CHANNELS 6 Xposition Yposition Zposition Zrotation Xrotation Yrotation
				JOINT LeftShoulder
				{
					OFFSET 5.536700 0.000000 0.000000
					CHANNELS 6 Xposition Yposition Zposition Zrotation Xrotation Yrotation
					JOINT LeftElbow
					{
						OFFSET 0.000000 -0.000001 -12.362099
						CHANNELS 6 Xposition Yposition Zposition Zrotation Xrotation Yrotation
						JOINT LeftWrist
						{
							OFFSET 0.000000 -0.000001 -10.273201
							CHANNELS 6 Xposition Yposition Zposition Zrotation Xrotation Yrotation
							End Site
							{
								OFFSET 0.000000 -0.000000 -2.173901
							}
						}
					}
				}
			}
			JOINT RightCollar
			{
				OFFSET -2.899500 -1.655900 6.981701
				CHANNELS 6 Xposition Yposition Zposition Zrotation Xrotation Yrotation
				JOINT RightShoulder
				{
					OFFSET -4.387501 0.000000 0.000000
					CHANNELS 6 Xposition Yposition Zposition Zrotation Xrotation Yrotation
					JOINT RightElbow
					{
						OFFSET 0.000000 -0.000001 -10.858101
						CHANNELS 6 Xposition Yposition Zposition Zrotation Xrotation Yrotation
						JOINT RightWrist
						{
							OFFSET 0.000000 -0.000001 -12.079601
							CHANNELS 6 Xposition Yposition Zposition Zrotation Xrotation Yrotation
							End Site
							{
								OFFSET 0.000000 0.000000 -2.173901
							}
						}
					}
				}
			}
		}
	}
	JOINT LeftHip
	{
		OFFSET 2.190800 0.073900 -2.522499
		CHANNELS 6 Xposition Yposition Zposition Zrotation Xrotation Yrotation
		JOINT LeftKnee
		{
			OFFSET 0.000000 -0.000002 -20.305000
			CHANNELS 6 Xposition Yposition Zposition Zrotation Xrotation Yrotation
			JOINT LeftAnkle
			{
				OFFSET 0.000000 -0.000001 -16.771700
				CHANNELS 6 Xposition Yposition Zposition Zrotation Xrotation Yrotation
				End Site
				{
					OFFSET 0.000000 -8.738000 0.000001
				}
			}
		}
	}
	JOINT RightHip
	{
		OFFSET -2.029500 0.054300 -2.705200
		CHANNELS 6 Xposition Yposition Zposition Zrotation Xrotation Yrotation
		JOINT RightKnee
		{
			OFFSET 0.000000 -0.000002 -20.030399
			CHANNELS 6 Xposition Yposition Zposition Zrotation Xrotation Yrotation
			JOINT RightAnkle
			{
				OFFSET 0.000000 -0.000001 -17.032700
				CHANNELS 6 Xposition Yposition Zposition Zrotation Xrotation Yrotation
				End Site
				{
					OFFSET 0.000000 -8.823600 0.000001
				}
			}
		}
	}
}
MOTION
Frames: 4
Frame Time: 0.041667
11.714303 35.840107 39.876701 -746.728408 15.017243 14.857009 -0.698600 0.806097 5.350900 20.648608 -9.660424 13.477555 0.000003 0.000001 4.409109 -22.730685 0.103516 -1.423654 -0.000006 0.000000 10.248299 51.194317 -2.293031 -15.884898 0.000000 -0.000004 2.173899 -0.135198 -1.945337 1.748708 2.100596 -0.520900 6.016104 -1.498334 4.130712 1.004698 5.536701 0.000004 0.000001 163.998907 219.589257 78.641138 0.000003 -0.000000 -12.362094 39.941044 3.622452 -4.489704 -0.000000 -0.000000 -10.273204 -122.578386 192.566242 -161.156824 -2.899504 -1.655899 6.981707 18.726827 12.493768 -8.442494 -4.387501 0.000003 -0.000007 -12.614551 27.190281 364.359774 0.000000 0.000003 -10.858103 170.822662 -145.946157 144.551952 -0.000001 0.000000 -12.079597 -354.393736 -32.951028 -59.103054 2.190802 0.073898 -2.522496 -392.405515 -167.943068 -104.716055 -0.000005 -0.000002 -20.305000 -319.616735 -27.631448 -26.993493 -0.000011 -0.000003 -16.771706 917.265118 13.396876 67.123500 -2.029499 0.054294 -2.705197 -410.586986 -32.938376 -14.248478 0.000003 0.000000 -20.030397 398.910396 64.914132 -17.387302 0.000002 -0.000003 -17.032700 -8.550548 4.291752 1.917070
11.181005 36.483604 39.815594 -747.975382 15.182134 15.270867 -0.698601 0.806101 5.350901 21.730283 -9.930813 13.549177 0.000001 0.000003 4.409096 -23.312242 0.078057 -1.468683 -0.000001 -0.000002 10.248302 51.404540 -2.248550 -15.845762 0.000002 0.000004 2.173895 -0.048824 -2.036435 1.695194 2.100598 -0.520899 6.016104 -1.447246 4.209072 0.887657 5.536696 -0.000000 0.000005 163.113988 218.227795 77.399458 0.000003 -0.000000 -12.362099 38.632639 3.929150 -4.583984 0.000002 0.000004 -10.273197 -119.893343 192.037845 -161.540326 -2.899498 -1.655903 6.981696 18.670151 12.529964 -8.509851 -4.387500 0.000003 -0.000002 -12.815535 27.374172 364.481242 0.000004 0.000001 -10.858089 171.029057 -145.739243 144.772485 -0.000002 -0.000003 -12.079603 -355.656747 -33.013344 -59.758302 2.190802 0.073899 -2.522499 -392.222083 -167.885094 -105.218914 -0.000006 -0.000002 -20.305008 -332.646496 -17.853597 -31.145673 -0.000007 -0.000008 -16.771706 936.078737 14.794886 60.844316 -2.029502 0.054298 -2.705196 -412.081077 -33.449253 -17.672553 -0.000004 -0.000001 -20.030399 405.683129 66.669094 -22.378268 -0.000003 -0.000001 -17.032700 -10.467035 3.283337 0.692404
10.647809 37.073807 39.769592 -749.495072 15.084246 15.718951 -0.698600 0.806100 5.350897 23.134450 -10.104559 13.678708 0.000005 0.000003 4.409111 -23.840031 0.155413 -1.493057 0.000003 -0.000005 10.248301 51.712493 -2.380615 -15.989683 0.000001 -0.000004 2.173894 -0.011457 -2.082865 1.706156 2.100604 -0.520901 6.016095 -1.339241 4.206041 0.607897 5.536696 0.000003 0.000008 162.593309 217.009276 76.739101 0.000002 -0.000001 -12.362098 36.920434 4.235372 -4.601143 0.000001 -0.000002 -10.273200 -116.660218 192.227560 -162.334212 -2.899498 -1.655903 6.981701 18.725081 12.602370 -8.668425 -4.387501 0.000001 -0.000003 -12.869199 27.556975 364.572904 0.000001 -0.000006 -10.858107 170.129248 -145.878716 144.356936 -0.000002 -0.000002 -12.079608 -355.920912 -32.902995 -60.577248 2.190800 0.073900 -2.522494 -391.995048 -167.091712 -106.074887 -0.000004 0.000001 -20.305004 -340.040503 -11.510780 -31.524878 -0.000003 -0.000004 -16.771704 949.115656 14.815264 56.530204 -2.029502 0.054299 -2.705199 -411.908218 -33.506463 -20.139516 -0.000006 0.000001 -20.030401 410.683238 67.616031 -26.342083 0.000002 -0.000006 -17.032700 -12.213658 2.512797 -0.456241
10.123801 37.608608 39.728191 -750.802916 14.855434 16.268349 -0.698597 0.806098 5.350897 24.374372 -10.288880 13.568348 0.000001 -0.000004 4.409110 -24.326374 0.163635 -1.532106 0.000002 0.000003 10.248308 52.033508 -2.414568 -16.192700 0.000001 -0.000002 2.173896 -0.004623 -2.215775 1.669172 2.100602 -0.520897 6.016107 -1.389951 4.335877 0.682805 5.536695 0.000003 0.000011 162.203852 215.810482 75.998893 -0.000006 0.000002 -12.362094 35.725462 4.532786 -4.703962 -0.000001 0.000004 -10.273197 -113.770871 192.409202 -163.039143 -2.899499 -1.655897 6.981706 18.842870 12.849681 -9.041416 -4.387501 0.000010 -0.000002 -13.257975 27.534135 365.119483 0.000007 0.000002 -10.858099 168.388970 -146.541476 143.080264 -0.000006 -0.000001 -12.079604 -355.204780 -32.502517 -61.144646 2.190804 0.073894 -2.522501 -392.061328 -165.615326 -106.974812 -0.000006 -0.000002 -20.305002 -347.204634 -5.346877 -31.265519 -0.000007 -0.000009 -16.771702 963.312395 15.189478 50.002036 -2.029497 0.054290 -2.705207 -411.366338 -33.207543 -22.231065 0.000002 -0.000003 -20.030399 413.877498 68.302896 -28.849414 0.000000 -0.000000 -17.032701 -13.515122 2.011719 -1.786088
